<svg xmlns="http://www.w3.org/2000/svg" xmlns:xlink="http://www.w3.org/1999/xlink" width="400" height="400" viewBox="0 0 400 400">
<rect data-name="background" width="100%" height="100%" fill="none"/><g data-name="icon" fill="#000000" data="id:1087668" transform="translate(123.77282545298512,97.08924399163111) scale(0.2521184586968247)">
    <metadata>
Created by potrace 1.14, written by Peter Selinger 2001-2017
</metadata><g transform="translate(0.000000,600.000000) scale(0.100000,-0.100000)" stroke="none"><path d="M3160 5494 c-413 -40 -538 -58 -1080 -155 -155 -28 -278 -43 -395 -50 -93 -6 -180 -14 -193 -20 -60 -24 -71 -138 -43 -444 30 -320 43 -400 117 -725 123 -538 223 -920 259 -995 31 -64 95 -145 114 -145 4 0 7 69 7 153 l-1 152 -107 325 c-219 667 -274 863 -318 1130 -37 217 -49 440 -28 480 l14 25 149 -3 c114 -3 223 4 450 27 611 62 636 63 949 62 323 -2 380 -8 585 -61 132 -35 148 -36 177 -12 36 29 51 64 53 123 3 86 -10 96 -144 114 -109 15 -478 27 -565 19z"/><path d="M4148 5382 c-76 -39 -361 -236 -506 -349 -170 -133 -958 -880 -1028 -976 -40 -54 -84 -150 -84 -182 0 -17 16 -20 25 -5 3 5 38 25 78 43 110 52 170 105 368 327 266 298 500 549 635 680 252 245 578 477 637 454 7 -2 44 -64 83 -137 43 -78 131 -214 218 -334 211 -293 458 -646 481 -690 11 -21 66 -122 122 -224 114 -206 139 -266 189 -449 19 -69 43 -133 53 -143 41 -42 138 -29 199 26 31 29 28 56 -19 165 -151 353 -337 629 -790 1172 -303 363 -324 390 -409 525 -34 55 -72 108 -84 117 -34 28 -87 22 -168 -20z"/><path d="M1182 4845 c-69 -78 -232 -321 -287 -428 -134 -257 -244 -526 -449 -1092 -42 -115 -115 -290 -163 -387 -98 -202 -98 -206 -19 -274 45 -39 299 -167 522 -262 239 -102 1292 -421 1444 -437 100 -11 240 21 184 41 -10 4 -39 23 -64 42 -100 76 -163 96 -540 176 -636 134 -854 189 -1060 264 -304 111 -479 200 -495 251 -4 14 17 56 71 142 45 73 114 207 169 328 270 601 329 722 482 975 140 233 165 266 303 410 101 106 110 118 110 153 -1 51 -16 76 -70 112 -64 43 -90 41 -138 -14z"/><path d="M3692 3829 c-90 -15 -90 -20 0 -78 132 -87 164 -97 535 -176 668 -141 871 -192 1108 -281 262 -98 455 -200 455 -242 0 -10 -32 -69 -72 -132 -39 -63 -107 -194 -151 -290 -323 -714 -342 -753 -510 -1030 -131 -217 -174 -274 -324 -431 -87 -90 -94 -105 -72 -167 13 -39 93 -92 137 -92 27 0 39 9 77 58 95 119 244 352 302 472 149 305 205 442 389 950 80 218 139 364 195 473 43 87 79 170 79 184 0 51 -82 114 -262 201 -353 173 -466 215 -1008 377 -657 197 -766 222 -878 204z"/><path d="M2881 3290 c-65 -23 -101 -46 -101 -63 0 -7 -22 -29 -49 -50 -64 -47 -98 -106 -118 -203 -14 -70 -14 -80 1 -111 9 -18 16 -44 16 -57 0 -56 32 -126 81 -180 59 -65 105 -95 151 -101 18 -2 60 -13 93 -25 70 -26 133 -22 217 11 75 29 218 175 241 245 27 81 32 159 13 188 -9 14 -16 38 -16 54 0 16 -7 49 -16 75 -28 81 -148 197 -204 197 -15 0 -47 9 -71 20 -58 26 -165 26 -238 0z"/><path d="M4095 2688 l1 -153 106 -320 c102 -308 214 -669 257 -825 74 -273 124 -709 91 -796 l-11 -27 -147 6 c-116 5 -196 1 -382 -18 -711 -72 -676 -70 -1020 -67 -345 2 -354 3 -582 59 -140 35 -147 36 -172 20 -38 -25 -57 -60 -62 -115 -6 -62 8 -100 42 -112 42 -16 329 -41 474 -41 284 0 564 34 1227 152 211 37 325 52 449 58 192 11 209 18 232 92 22 72 2 407 -43 719 -18 123 -125 591 -230 1010 -79 313 -112 400 -179 473 -19 20 -39 37 -43 37 -4 0 -8 -69 -8 -152z"/><path d="M466 2402 c-68 -39 -74 -57 -46 -134 41 -114 167 -366 234 -467 176 -269 310 -443 710 -920 101 -121 212 -266 256 -335 43 -67 87 -131 98 -143 33 -35 92 -31 177 13 110 56 477 317 610 434 194 171 844 793 908 869 46 56 86 134 94 187 6 37 5 38 -13 23 -10 -8 -59 -34 -107 -58 -107 -52 -149 -91 -446 -424 -117 -130 -289 -319 -384 -419 -316 -334 -728 -646 -793 -601 -6 5 -42 66 -81 138 -40 74 -132 216 -214 330 -183 253 -392 551 -446 635 -22 36 -92 160 -156 275 -113 208 -167 341 -207 513 -17 74 -44 103 -100 108 -36 3 -55 -2 -94 -24z"/></g>
    </g><g data-name="business_name" fill="#000000" data="id:284" transform="translate(60.09025278378806,246.97386880574172) scale(0.750288458493852)"><path d="M27.94921875,20.09765625l0,0.87890625l-3.0078125,0.1953125l0,25.72265625l3.0078125,0.1953125l0,0.87890625l-11.015625,0l0-0.87890625l3.0078125-0.1953125l0-12.63671875l-10.5078125,0l0,12.63671875l3.0078125,0.1953125l0,0.87890625l-11.015625,0l0-0.87890625l3.0078125-0.1953125l0-25.72265625l-3.0078125-0.1953125l0-0.87890625l11.015625,0l0,0.87890625l-3.0078125,0.1953125l0,11.9140625l10.5078125-0.15625l0-11.7578125l-3.0078125-0.1953125l0-0.87890625l11.015625,0z M35.5078125,43.3203125c0,1.97265625,0.7421875,3.49609375,2.3046875,3.49609375c1.6796875,0,3.49609375-2.40234375,3.49609375-5.72265625l0-2.6953125c-0.46875-0.05859375-0.87890625-0.09765625-1.26953125-0.09765625c-4.23828125,0-4.53125,3.69140625-4.53125,5.01953125z M41.34765625,44.8828125l-0.0390625,0c-1.25,2.421875-2.96875,3.671875-5.60546875,3.671875c-3.3984375,0-4.921875-2.421875-4.921875-4.82421875c0-3.10546875,2.5390625-6.30859375,8.7109375-6.30859375c0.56640625,0,1.171875,0.01953125,1.81640625,0.078125l0-2.6953125c0-3.7109375-0.25390625-6.11328125-3.45703125-6.11328125c-2.51953125,0-3.671875,1.40625-4.16015625,2.24609375l0,0.078125c0.21484375-0.0390625,0.41015625-0.05859375,0.60546875-0.05859375c1.30859375,0,2.1875,0.8203125,2.1875,2.421875c0,1.34765625-1.03515625,2.40234375-2.4609375,2.40234375c-1.6015625,0-2.48046875-1.2890625-2.48046875-2.6171875c0-3.18359375,3.4765625-5.390625,6.9921875-5.390625c6.640625,0,7.55859375,3.3203125,7.55859375,8.671875l0,10.52734375l2.01171875,0.1953125l0,0.80078125l-6.2109375,0z M56.9921875,20.25390625l0,26.71875l2.01171875,0.1953125l0,0.80078125l-8.80859375,0l0-0.80078125l2.01171875-0.1953125l0-25.33203125l-2.40234375,0l0-0.80078125l4.08203125-0.4296875l2.75390625-0.72265625z M70.7421875,27.7734375c5.95703125,0,8.80859375,5.1953125,8.80859375,10.390625c0,5.76171875-3.5546875,10.390625-8.84765625,10.390625c-6.26953125,0-8.96484375-4.70703125-8.96484375-10.2734375c0-5.95703125,3.73046875-10.5078125,9.00390625-10.5078125z M70.625,47.67578125c2.9296875,0,3.92578125-3.984375,3.92578125-9.39453125c0-6.03515625-0.87890625-9.62890625-3.92578125-9.62890625c-2.83203125,0-3.88671875,4.00390625-3.88671875,9.39453125c0,5.60546875,1.0546875,9.62890625,3.88671875,9.62890625z M91.42578125,27.7734375c2.28515625,0,4.08203125,0.6640625,5.390625,1.69921875c0.68359375-1.2890625,1.89453125-2.98828125,3.80859375-2.98828125c1.5625,0,2.40234375,0.99609375,2.40234375,2.28515625c0,1.15234375-0.76171875,2.0703125-1.8359375,2.0703125c-1.171875,0-2.01171875-0.6640625-2.01171875-1.875c0-0.234375,0-0.60546875,0.21484375-0.95703125l0-0.078125c-0.68359375,0.13671875-1.40625,1.0546875-1.85546875,2.20703125c1.171875,1.25,1.77734375,2.83203125,1.77734375,4.4140625c0,3.92578125-3.37890625,6.640625-7.9296875,6.640625c-1.30859375,0-2.4609375-0.17578125-3.4375-0.48828125c-1.54296875,0.546875-2.5,1.40625-2.5,2.3046875c0,1.3671875,2.8515625,1.796875,6.484375,1.796875c6.953125,0,9.140625,1.3671875,9.140625,5.91796875c0,3.0078125-2.4609375,6.9140625-9.4140625,6.9140625c-3.59375,0-9.27734375-0.703125-9.27734375-4.66796875c0-3.06640625,3.14453125-4.0625,4.35546875-4.08203125l0-0.0390625c-2.12890625-0.64453125-3.6328125-1.7578125-3.6328125-3.92578125c0-2.5,2.3046875-4.12109375,3.84765625-4.5703125l0-0.0390625c-2.421875-1.1328125-3.61328125-3.28125-3.61328125-5.72265625c0-3.88671875,3.5546875-6.81640625,8.0859375-6.81640625z M98.90625,52.40234375c0-4.23828125-6.5234375-2.59765625-11.3671875-3.359375c-0.0390625,0.0390625-1.6796875,1.0546875-1.6796875,3.3203125c0,3.359375,3.4765625,4.2578125,6.5234375,4.2578125c4.08203125,0,6.5234375-1.77734375,6.5234375-4.21875z M91.34765625,40.3125c2.1875,0,3.1640625-2.05078125,3.1640625-5.72265625c0-4.04296875-0.859375-5.9375-3.0859375-5.9375c-2.12890625,0-3.28125,2.1484375-3.28125,5.8203125c0,3.75,1.07421875,5.83984375,3.203125,5.83984375z M115.09765625,29.4140625l0-0.1171875c-1.6015625,0.3515625-3.80859375,2.75390625-3.80859375,7.94921875l0,9.7265625l2.01171875,0.1953125l0,0.80078125l-8.80859375,0l0-0.80078125l2.01171875-0.1953125l0-17.05078125l-2.40234375,0l0-0.80078125l4.08203125-0.4296875l2.75390625-0.72265625l0.2734375,0.56640625l0,3.359375l0.078125,0c0.87890625-1.796875,2.890625-4.12109375,5.17578125-4.12109375c2.03125,0,3.18359375,1.19140625,3.18359375,2.96875c0,1.42578125-0.9375,2.63671875-2.4609375,2.63671875c-1.58203125,0-2.51953125-1.1328125-2.51953125-2.44140625c0-0.37109375,0.09765625-1.1328125,0.4296875-1.5234375z M128.2421875,28.53515625l0,18.4375l2.01171875,0.1953125l0,0.80078125l-8.80859375,0l0-0.80078125l2.01171875-0.1953125l0-17.05078125l-2.40234375,0l0-0.80078125l4.08203125-0.4296875l2.75390625-0.72265625z M123.18359375,21.03515625c0-1.42578125,1.1328125-2.578125,2.578125-2.578125s2.59765625,1.15234375,2.59765625,2.578125c0,1.4453125-1.15234375,2.59765625-2.59765625,2.59765625s-2.578125-1.15234375-2.578125-2.59765625z M145.01953125,45.1953125l-0.0390625,0c-1.6015625,2.71484375-3.18359375,3.359375-5.3125,3.359375c-1.8359375,0-6.6796875-1.34765625-6.6796875-9.90234375c0-5.52734375,2.6171875-10.87890625,8.65234375-10.87890625c0.76171875,0,2.44140625,0.234375,3.359375,0.99609375l0-7.12890625l-2.40234375,0l0-0.80078125l4.08203125-0.4296875l2.75390625-0.72265625l0.37109375,0.56640625l0,26.71875l1.9921875,0.1953125l0,0.80078125l-6.5234375,0z M145,41.69921875l0-11.97265625c-0.72265625-0.546875-1.5625-0.83984375-2.48046875-0.83984375c-4.31640625,0-4.53125,6.2890625-4.53125,9.5703125c0,6.8359375,1.6796875,8.45703125,3.49609375,8.45703125c1.9140625,0,3.515625-2.7734375,3.515625-5.21484375z  M174.47265625,20.09765625l0,0.87890625l-3.0078125,0.1953125l0,25.72265625l3.0078125,0.1953125l0,0.87890625l-11.015625,0l0-0.87890625l3.0078125-0.1953125l0-25.72265625l-3.0078125-0.1953125l0-0.87890625l11.015625,0z M198.59375,20.09765625l0.1953125,9.55078125l-1.07421875,0c-1.15234375-6.15234375-1.85546875-8.49609375-6.46484375-8.49609375c-0.1953125,0-0.41015625,0.01953125-0.76171875,0.01953125l0,25.72265625l3.02734375,0.1953125l0,0.87890625l-11.015625,0l0-0.87890625l2.98828125-0.1953125l-0.1171875-25.703125c-0.3515625,0-0.56640625-0.01953125-0.76171875-0.01953125c-4.62890625,0-5.3125,2.34375-6.46484375,8.49609375l-1.07421875,0l0.1953125-9.5703125l21.328125,0z  M219.8046875,20.48828125c-3.4765625,0-5.7421875,1.7578125-5.7421875,4.47265625c0,2.578125,1.07421875,3.65234375,6.19140625,5.95703125c6.640625,2.98828125,9.0625,4.82421875,9.0625,9.90234375c0,3.76953125-2.98828125,7.83203125-9.19921875,7.83203125c-6.875,0-9.16015625-2.7734375-9.16015625-5.390625c0-1.69921875,1.09375-3.0859375,2.96875-3.0859375c1.71875,0,2.83203125,1.25,2.83203125,2.8515625c0,1.8359375-1.19140625,2.79296875-2.87109375,2.79296875l0,0.078125c0.3515625,0.41015625,2.0703125,1.66015625,5.87890625,1.66015625c3.14453125,0,6.4453125-1.69921875,6.4453125-4.53125c0-2.48046875-1.46484375-4.08203125-8.76953125-7.32421875c-4.78515625-2.12890625-6.38671875-4.27734375-6.38671875-8.57421875c0-4.2578125,3.4765625-7.71484375,8.7890625-7.71484375c5.41015625,0,8.0078125,2.67578125,8.0078125,5.64453125c0,1.5625-1.0546875,2.94921875-2.9296875,2.94921875c-1.71875,0-2.87109375-1.19140625-2.87109375-2.79296875c0-1.8359375,1.30859375-2.8515625,2.98828125-2.8515625l0-0.078125c-0.3515625-0.390625-1.8359375-1.796875-5.234375-1.796875z M241.4453125,27.7734375c5.95703125,0,8.80859375,5.1953125,8.80859375,10.390625c0,5.76171875-3.5546875,10.390625-8.84765625,10.390625c-6.26953125,0-8.96484375-4.70703125-8.96484375-10.2734375c0-5.95703125,3.73046875-10.5078125,9.00390625-10.5078125z M241.328125,47.67578125c2.9296875,0,3.92578125-3.984375,3.92578125-9.39453125c0-6.03515625-0.87890625-9.62890625-3.92578125-9.62890625c-2.83203125,0-3.88671875,4.00390625-3.88671875,9.39453125c0,5.60546875,1.0546875,9.62890625,3.88671875,9.62890625z M259.78515625,20.25390625l0,26.71875l2.01171875,0.1953125l0,0.80078125l-8.80859375,0l0-0.80078125l2.01171875-0.1953125l0-25.33203125l-2.40234375,0l0-0.80078125l4.08203125-0.4296875l2.75390625-0.72265625z M278.0078125,47.96875l-0.5859375-3.0078125l-0.078125,0c-1.09375,1.6015625-2.6953125,3.59375-5.56640625,3.59375c-1.9921875,0-5.72265625-0.7421875-5.72265625-6.46484375l0-12.16796875l-2.40234375,0l0-0.80078125l4.08203125-0.4296875l2.75390625-0.72265625l0.37109375,0.56640625l0,14.1015625c0,4.04296875,2.16796875,4.1015625,2.83203125,4.1015625c1.73828125,0,3.65234375-2.48046875,3.65234375-5.9765625l0-10.83984375l-2.40234375,0l0-0.80078125l4.08203125-0.4296875l2.75390625-0.72265625l0.3515625,0.56640625l0,18.4375l2.01171875,0.1953125l0,0.80078125l-6.1328125,0z M288.69140625,24.04296875l1.6796875-0.17578125l2.75390625-0.72265625l0.37109375,0.56640625l0,4.6484375l4.27734375,0l0,0.83984375l-4.27734375,0.17578125l0,13.75c0,3.4375,1.875,3.515625,2.36328125,3.515625c1.71875,0,2.83203125-1.71875,3.59375-2.98828125l0.83984375,0.5078125c-0.76171875,1.25-2.48046875,4.39453125-6.07421875,4.39453125c-2.71484375,0-5.52734375-0.83984375-5.52734375-6.54296875l0-12.63671875l-3.3203125-0.17578125l0-0.83984375l3.3203125,0l0-4.31640625z M308.28125,28.53515625l0,18.4375l2.01171875,0.1953125l0,0.80078125l-8.80859375,0l0-0.80078125l2.01171875-0.1953125l0-17.05078125l-2.40234375,0l0-0.80078125l4.08203125-0.4296875l2.75390625-0.72265625z M303.22265625,21.03515625c0-1.42578125,1.1328125-2.578125,2.578125-2.578125s2.59765625,1.15234375,2.59765625,2.578125c0,1.4453125-1.15234375,2.59765625-2.59765625,2.59765625s-2.578125-1.15234375-2.578125-2.59765625z M321.9921875,27.7734375c5.95703125,0,8.80859375,5.1953125,8.80859375,10.390625c0,5.76171875-3.5546875,10.390625-8.84765625,10.390625c-6.26953125,0-8.96484375-4.70703125-8.96484375-10.2734375c0-5.95703125,3.73046875-10.5078125,9.00390625-10.5078125z M321.875,47.67578125c2.9296875,0,3.92578125-3.984375,3.92578125-9.39453125c0-6.03515625-0.87890625-9.62890625-3.92578125-9.62890625c-2.83203125,0-3.88671875,4.00390625-3.88671875,9.39453125c0,5.60546875,1.0546875,9.62890625,3.88671875,9.62890625z M340.625,28.53515625l-0.078125,2.63671875l0.078125,0c1.09375-1.6015625,2.9296875-3.3984375,6.015625-3.3984375c1.9921875,0,5.46875,0.76171875,5.46875,6.484375l0,12.71484375l1.9921875,0.1953125l0,0.80078125l-8.7890625,0l0-0.80078125l1.9921875-0.1953125l0-13.28125c0-4.04296875-1.9921875-4.16015625-2.67578125-4.16015625c-2.32421875,0-4.00390625,2.32421875-4.00390625,5.80078125l0,11.640625l2.01171875,0.1953125l0,0.80078125l-8.80859375,0l0-0.80078125l2.01171875-0.1953125l0-17.08984375l-2.36328125,0.0390625l-0.0390625-0.80078125l4.08203125-0.4296875l2.75390625-0.72265625z M363.2421875,47.63671875c2.96875,0,4.35546875-1.23046875,4.35546875-2.87109375c0-1.71875-0.99609375-2.51953125-3.9453125-4.12109375c-2.8125-1.5234375-6.77734375-3.0859375-6.77734375-7.05078125c0-3.5546875,2.96875-5.8203125,7.12890625-5.8203125c3.1640625,0,6.3671875,1.50390625,6.3671875,4.453125c0,1.1328125-0.8203125,2.32421875-2.265625,2.32421875c-1.50390625,0-2.265625-0.95703125-2.265625-2.1484375c0-1.50390625,0.9375-2.1484375,1.875-2.1484375l0.17578125,0l0-0.0390625c-0.56640625-0.8203125-1.875-1.5625-3.88671875-1.5625c-2.96875,0-4.1015625,1.62109375-4.1015625,2.890625c0,1.484375,0.8984375,2.03125,4.47265625,3.8671875c3.02734375,1.5625,7.1484375,3.3984375,7.1484375,7.40234375c0,3.359375-2.51953125,5.7421875-8.203125,5.7421875c-2.67578125,0-6.484375-1.26953125-6.484375-4.6875c0-1.46484375,0.9375-2.83203125,2.5390625-2.83203125c1.38671875,0,2.20703125,1.03515625,2.24609375,2.265625c0,1.46484375-1.15234375,2.2265625-2.20703125,2.2265625c-0.09765625,0-0.234375,0-0.33203125-0.01953125l0,0.0390625c0.44921875,1.03515625,1.89453125,2.08984375,4.16015625,2.08984375z"/></g></svg>