<svg xmlns="http://www.w3.org/2000/svg" xmlns:xlink="http://www.w3.org/1999/xlink" width="400" height="400" viewBox="0 0 400 400"><g data-name="icon" fill="#65c5e8" data="id:1087668" transform="translate(6.7752256800577655, 1.742151500192442) scale(0.639083536456401)">
    <metadata>
Created by potrace 1.14, written by Peter Selinger 2001-2017
</metadata><g transform="translate(0.000000,600.000000) scale(0.100000,-0.100000)" stroke="none"><path d="M3160 5494 c-413 -40 -538 -58 -1080 -155 -155 -28 -278 -43 -395 -50 -93 -6 -180 -14 -193 -20 -60 -24 -71 -138 -43 -444 30 -320 43 -400 117 -725 123 -538 223 -920 259 -995 31 -64 95 -145 114 -145 4 0 7 69 7 153 l-1 152 -107 325 c-219 667 -274 863 -318 1130 -37 217 -49 440 -28 480 l14 25 149 -3 c114 -3 223 4 450 27 611 62 636 63 949 62 323 -2 380 -8 585 -61 132 -35 148 -36 177 -12 36 29 51 64 53 123 3 86 -10 96 -144 114 -109 15 -478 27 -565 19z" fill="#000000"/><path d="M4148 5382 c-76 -39 -361 -236 -506 -349 -170 -133 -958 -880 -1028 -976 -40 -54 -84 -150 -84 -182 0 -17 16 -20 25 -5 3 5 38 25 78 43 110 52 170 105 368 327 266 298 500 549 635 680 252 245 578 477 637 454 7 -2 44 -64 83 -137 43 -78 131 -214 218 -334 211 -293 458 -646 481 -690 11 -21 66 -122 122 -224 114 -206 139 -266 189 -449 19 -69 43 -133 53 -143 41 -42 138 -29 199 26 31 29 28 56 -19 165 -151 353 -337 629 -790 1172 -303 363 -324 390 -409 525 -34 55 -72 108 -84 117 -34 28 -87 22 -168 -20z" fill="#000000"/><path d="M1182 4845 c-69 -78 -232 -321 -287 -428 -134 -257 -244 -526 -449 -1092 -42 -115 -115 -290 -163 -387 -98 -202 -98 -206 -19 -274 45 -39 299 -167 522 -262 239 -102 1292 -421 1444 -437 100 -11 240 21 184 41 -10 4 -39 23 -64 42 -100 76 -163 96 -540 176 -636 134 -854 189 -1060 264 -304 111 -479 200 -495 251 -4 14 17 56 71 142 45 73 114 207 169 328 270 601 329 722 482 975 140 233 165 266 303 410 101 106 110 118 110 153 -1 51 -16 76 -70 112 -64 43 -90 41 -138 -14z" fill="#000000"/><path d="M3692 3829 c-90 -15 -90 -20 0 -78 132 -87 164 -97 535 -176 668 -141 871 -192 1108 -281 262 -98 455 -200 455 -242 0 -10 -32 -69 -72 -132 -39 -63 -107 -194 -151 -290 -323 -714 -342 -753 -510 -1030 -131 -217 -174 -274 -324 -431 -87 -90 -94 -105 -72 -167 13 -39 93 -92 137 -92 27 0 39 9 77 58 95 119 244 352 302 472 149 305 205 442 389 950 80 218 139 364 195 473 43 87 79 170 79 184 0 51 -82 114 -262 201 -353 173 -466 215 -1008 377 -657 197 -766 222 -878 204z" fill="#000000"/><path d="M2881 3290 c-65 -23 -101 -46 -101 -63 0 -7 -22 -29 -49 -50 -64 -47 -98 -106 -118 -203 -14 -70 -14 -80 1 -111 9 -18 16 -44 16 -57 0 -56 32 -126 81 -180 59 -65 105 -95 151 -101 18 -2 60 -13 93 -25 70 -26 133 -22 217 11 75 29 218 175 241 245 27 81 32 159 13 188 -9 14 -16 38 -16 54 0 16 -7 49 -16 75 -28 81 -148 197 -204 197 -15 0 -47 9 -71 20 -58 26 -165 26 -238 0z" fill="#000000"/><path d="M4095 2688 l1 -153 106 -320 c102 -308 214 -669 257 -825 74 -273 124 -709 91 -796 l-11 -27 -147 6 c-116 5 -196 1 -382 -18 -711 -72 -676 -70 -1020 -67 -345 2 -354 3 -582 59 -140 35 -147 36 -172 20 -38 -25 -57 -60 -62 -115 -6 -62 8 -100 42 -112 42 -16 329 -41 474 -41 284 0 564 34 1227 152 211 37 325 52 449 58 192 11 209 18 232 92 22 72 2 407 -43 719 -18 123 -125 591 -230 1010 -79 313 -112 400 -179 473 -19 20 -39 37 -43 37 -4 0 -8 -69 -8 -152z" fill="#000000"/><path d="M466 2402 c-68 -39 -74 -57 -46 -134 41 -114 167 -366 234 -467 176 -269 310 -443 710 -920 101 -121 212 -266 256 -335 43 -67 87 -131 98 -143 33 -35 92 -31 177 13 110 56 477 317 610 434 194 171 844 793 908 869 46 56 86 134 94 187 6 37 5 38 -13 23 -10 -8 -59 -34 -107 -58 -107 -52 -149 -91 -446 -424 -117 -130 -289 -319 -384 -419 -316 -334 -728 -646 -793 -601 -6 5 -42 66 -81 138 -40 74 -132 216 -214 330 -183 253 -392 551 -446 635 -22 36 -92 160 -156 275 -113 208 -167 341 -207 513 -17 74 -44 103 -100 108 -36 3 -55 -2 -94 -24z" fill="#000000"/></g>
    </g></svg>